HIERARCHY
ROOT Hips__laU
{
  OFFSET -9.25178 34.3137 0
  CHANNELS 6 Xposition Yposition Zposition Zrotation Xrotation Yrotation
  JOINT Bip01_Pelvis__3KH
  {
    OFFSET 0 0 0
    CHANNELS 3 Zrotation Xrotation Yrotation
    JOINT BN_Tail_01__vyh
    {
      OFFSET -2.72686 -0.407772 0
      CHANNELS 3 Zrotation Xrotation Yrotation
      JOINT BN_Tail_02__ZBO
      {
        OFFSET 9.45902 0.0334244 0
        CHANNELS 3 Zrotation Xrotation Yrotation
        JOINT BN_Tail_03__6sE
        {
          OFFSET 10.2991 0 0
          CHANNELS 3 Zrotation Xrotation Yrotation
          JOINT BN_Tail_04__OMY
          {
            OFFSET 14.125 -1.33514e-005 0
            CHANNELS 3 Zrotation Xrotation Yrotation
            JOINT BN_Tail_05__Ymi
            {
              OFFSET 12.1389 0.000375748 0
              CHANNELS 3 Zrotation Xrotation Yrotation
              JOINT BN_Tail_06__2ZS
              {
                OFFSET 8.63218 0 0
                CHANNELS 3 Zrotation Xrotation Yrotation
                JOINT BN_Tail_07__UIn
                {
                  OFFSET 7.11833 -0.000595093 0
                  CHANNELS 3 Zrotation Xrotation Yrotation
                  End Site
                  {
                    OFFSET 0 0 0
                  }
                }
              }
            }
          }
        }
      }
    }
    JOINT Bip01_Spine__he3
    {
      OFFSET 2.90937 -0.00482941 0
      CHANNELS 3 Zrotation Xrotation Yrotation
      JOINT Bip01_R_Thigh__5yz
      {
        OFFSET -2.90937 0.00716019 -4.50047
        CHANNELS 3 Zrotation Xrotation Yrotation
        JOINT Bip01_R_Calf__yE2
        {
          OFFSET 16.7585 0 0
          CHANNELS 3 Zrotation Xrotation Yrotation
          JOINT Bip01_R_Foot__pQ5
          {
            OFFSET 15.3603 0 0
            CHANNELS 3 Zrotation Xrotation Yrotation
            JOINT Bip01_R_Toe2__cbV
            {
              OFFSET 2.78812 2.0777 -1.74276
              CHANNELS 3 Zrotation Xrotation Yrotation
              JOINT Bip01_R_Toe21__LiO
              {
                OFFSET 2.28509 0 0
                CHANNELS 3 Zrotation Xrotation Yrotation
                JOINT Bip01_R_Toe2Nub__728
                {
                  OFFSET 2.61851 0 0
                  CHANNELS 3 Zrotation Xrotation Yrotation
                  End Site
                  {
                    OFFSET 0 0 0
                  }
                }
              }
            }
            JOINT Bip01_R_Toe1__KSj
            {
              OFFSET 3.1588 6.28884 -1.34264
              CHANNELS 3 Zrotation Xrotation Yrotation
              JOINT Bip01_R_Toe11__5Uc
              {
                OFFSET 3.77237 0 0
                CHANNELS 3 Zrotation Xrotation Yrotation
                JOINT Bip01_R_Toe1Nub__KgN
                {
                  OFFSET 2.75932 0 0
                  CHANNELS 3 Zrotation Xrotation Yrotation
                  End Site
                  {
                    OFFSET 0 0 0
                  }
                }
              }
            }
            JOINT Bip01_R_Toe0__1Ci
            {
              OFFSET 3.32839 6.64178 0.820227
              CHANNELS 3 Zrotation Xrotation Yrotation
              JOINT Bip01_R_Toe01__M9D
              {
                OFFSET 3.61141 0 0
                CHANNELS 3 Zrotation Xrotation Yrotation
                JOINT Bip01_R_Toe0Nub__Iks
                {
                  OFFSET 3.25944 0 0
                  CHANNELS 3 Zrotation Xrotation Yrotation
                  End Site
                  {
                    OFFSET 0 0 0
                  }
                }
              }
            }
          }
        }
      }
      JOINT Bip01_L_Thigh__HBT
      {
        OFFSET -2.90937 0.00714111 4.50047
        CHANNELS 3 Zrotation Xrotation Yrotation
        JOINT Bip01_L_Calf__vVm
        {
          OFFSET 16.7585 0 0
          CHANNELS 3 Zrotation Xrotation Yrotation
          JOINT Bip01_L_Foot__uRN
          {
            OFFSET 15.3603 0 0
            CHANNELS 3 Zrotation Xrotation Yrotation
            JOINT Bip01_L_Toe2__hMF
            {
              OFFSET 2.78812 2.07769 1.74276
              CHANNELS 3 Zrotation Xrotation Yrotation
              JOINT Bip01_L_Toe21__pjx
              {
                OFFSET 2.28509 0 0
                CHANNELS 3 Zrotation Xrotation Yrotation
                JOINT Bip01_L_Toe2Nub__T98
                {
                  OFFSET 2.61851 0 0
                  CHANNELS 3 Zrotation Xrotation Yrotation
                  End Site
                  {
                    OFFSET 0 0 0
                  }
                }
              }
            }
            JOINT Bip01_L_Toe1__6Kl
            {
              OFFSET 3.1588 6.28884 1.34264
              CHANNELS 3 Zrotation Xrotation Yrotation
              JOINT Bip01_L_Toe11__AzO
              {
                OFFSET 3.77237 0 0
                CHANNELS 3 Zrotation Xrotation Yrotation
                JOINT Bip01_L_Toe1Nub__RvV
                {
                  OFFSET 2.75932 0 0
                  CHANNELS 3 Zrotation Xrotation Yrotation
                  End Site
                  {
                    OFFSET 0 0 0
                  }
                }
              }
            }
            JOINT Bip01_L_Toe0__YeV
            {
              OFFSET 3.32839 6.64178 -0.820224
              CHANNELS 3 Zrotation Xrotation Yrotation
              JOINT Bip01_L_Toe01__Lzl
              {
                OFFSET 3.61141 0 0
                CHANNELS 3 Zrotation Xrotation Yrotation
                JOINT Bip01_L_Toe0Nub__gcj
                {
                  OFFSET 3.25943 0 0
                  CHANNELS 3 Zrotation Xrotation Yrotation
                  End Site
                  {
                    OFFSET 0 0 0
                  }
                }
              }
            }
          }
        }
      }
      JOINT Bip01_Spine1__bEI
      {
        OFFSET 6.06538 -0.00541687 0
        CHANNELS 3 Zrotation Xrotation Yrotation
        JOINT Bip01_Spine2__IFv
        {
          OFFSET 6.82794 -0.00754547 0
          CHANNELS 3 Zrotation Xrotation Yrotation
          JOINT Bip01_L_Clavicle__3KO
          {
            OFFSET 6.50469 2.54354 0.146032
            CHANNELS 3 Zrotation Xrotation Yrotation
            JOINT Bip01_L_UpperArm__hCb
            {
              OFFSET 5.36694 0 0
              CHANNELS 3 Zrotation Xrotation Yrotation
              JOINT Bip01_L_Forearm__85j
              {
                OFFSET 14.7622 0 0
                CHANNELS 3 Zrotation Xrotation Yrotation
                JOINT Bip01_L_Hand__9uQ
                {
                  OFFSET 16.4754 0 0
                  CHANNELS 3 Zrotation Xrotation Yrotation
                  JOINT Bip01_L_Finger3__8GS
                  {
                    OFFSET 5.61879 1.71712 1.51729
                    CHANNELS 3 Zrotation Xrotation Yrotation
                    JOINT Bip01_L_Finger31__Dqk
                    {
                      OFFSET 2.57779 0 0
                      CHANNELS 3 Zrotation Xrotation Yrotation
                      JOINT Bip01_L_Finger32__8zo
                      {
                        OFFSET 1.69121 0 0
                        CHANNELS 3 Zrotation Xrotation Yrotation
                        JOINT Bip01_L_Finger3Nub__r2V
                        {
                          OFFSET 3.01914 0 0
                          CHANNELS 3 Zrotation Xrotation Yrotation
                          End Site
                          {
                            OFFSET 0 0 0
                          }
                        }
                      }
                    }
                  }
                  JOINT Bip01_L_Finger2__SAi
                  {
                    OFFSET 6.16736 1.40181 0.429689
                    CHANNELS 3 Zrotation Xrotation Yrotation
                    JOINT Bip01_L_Finger21__jLM
                    {
                      OFFSET 2.55813 0 0
                      CHANNELS 3 Zrotation Xrotation Yrotation
                      JOINT Bip01_L_Finger22__thq
                      {
                        OFFSET 1.88772 0 0
                        CHANNELS 3 Zrotation Xrotation Yrotation
                        JOINT Bip01_L_Finger2Nub__AVr
                        {
                          OFFSET 2.97052 0 0
                          CHANNELS 3 Zrotation Xrotation Yrotation
                          End Site
                          {
                            OFFSET 0 0 0
                          }
                        }
                      }
                    }
                  }
                  JOINT Bip01_L_Finger1__uWq
                  {
                    OFFSET 5.79823 1.3426 -0.727735
                    CHANNELS 3 Zrotation Xrotation Yrotation
                    JOINT Bip01_L_Finger11__iJg
                    {
                      OFFSET 2.6851 0 0
                      CHANNELS 3 Zrotation Xrotation Yrotation
                      JOINT Bip01_L_Finger12__Ty8
                      {
                        OFFSET 2.35773 0 0
                        CHANNELS 3 Zrotation Xrotation Yrotation
                        JOINT Bip01_L_Finger1Nub__4hU
                        {
                          OFFSET 2.06002 0 0
                          CHANNELS 3 Zrotation Xrotation Yrotation
                          End Site
                          {
                            OFFSET 0 0 0
                          }
                        }
                      }
                    }
                  }
                  JOINT Bip01_L_Finger0__FOZ
                  {
                    OFFSET 5.34553 1.5549 -1.82842
                    CHANNELS 3 Zrotation Xrotation Yrotation
                    JOINT Bip01_L_Finger01__qwc
                    {
                      OFFSET 2.06312 0 0
                      CHANNELS 3 Zrotation Xrotation Yrotation
                      JOINT Bip01_L_Finger02__XcF
                      {
                        OFFSET 1.30829 0 0
                        CHANNELS 3 Zrotation Xrotation Yrotation
                        JOINT Bip01_L_Finger0Nub__U3P
                        {
                          OFFSET 1.39008 0 0
                          CHANNELS 3 Zrotation Xrotation Yrotation
                          End Site
                          {
                            OFFSET 0 0 0
                          }
                        }
                      }
                    }
                  }
                }
              }
            }
          }
          JOINT Bip01_R_Clavicle__mpC
          {
            OFFSET 6.50469 2.54354 -0.146017
            CHANNELS 3 Zrotation Xrotation Yrotation
            JOINT Bip01_R_UpperArm__cmw
            {
              OFFSET 5.36695 0 0
              CHANNELS 3 Zrotation Xrotation Yrotation
              JOINT Bip01_R_Forearm__eS7
              {
                OFFSET 14.7622 0 0
                CHANNELS 3 Zrotation Xrotation Yrotation
                JOINT Bip01_R_Hand__h6b
                {
                  OFFSET 16.4754 0 0
                  CHANNELS 3 Zrotation Xrotation Yrotation
                  JOINT Bip01_R_Finger3__4V0
                  {
                    OFFSET 5.61878 1.71712 -1.51729
                    CHANNELS 3 Zrotation Xrotation Yrotation
                    JOINT Bip01_R_Finger31__SI2
                    {
                      OFFSET 2.57778 0 0
                      CHANNELS 3 Zrotation Xrotation Yrotation
                      JOINT Bip01_R_Finger32__wvp
                      {
                        OFFSET 1.69121 0 0
                        CHANNELS 3 Zrotation Xrotation Yrotation
                        JOINT Bip01_R_Finger3Nub__sZU
                        {
                          OFFSET 3.01913 0 0
                          CHANNELS 3 Zrotation Xrotation Yrotation
                          End Site
                          {
                            OFFSET 0 0 0
                          }
                        }
                      }
                    }
                  }
                  JOINT Bip01_R_Finger2__aL4
                  {
                    OFFSET 6.16735 1.40181 -0.429687
                    CHANNELS 3 Zrotation Xrotation Yrotation
                    JOINT Bip01_R_Finger21__Jix
                    {
                      OFFSET 2.55812 0 0
                      CHANNELS 3 Zrotation Xrotation Yrotation
                      JOINT Bip01_R_Finger22__Drk
                      {
                        OFFSET 1.88771 0 0
                        CHANNELS 3 Zrotation Xrotation Yrotation
                        JOINT Bip01_R_Finger2Nub__zlS
                        {
                          OFFSET 2.97051 0 0
                          CHANNELS 3 Zrotation Xrotation Yrotation
                          End Site
                          {
                            OFFSET 0 0 0
                          }
                        }
                      }
                    }
                  }
                  JOINT Bip01_R_Finger1__shH
                  {
                    OFFSET 5.79823 1.3426 0.727738
                    CHANNELS 3 Zrotation Xrotation Yrotation
                    JOINT Bip01_R_Finger11__NMo
                    {
                      OFFSET 2.6851 0 0
                      CHANNELS 3 Zrotation Xrotation Yrotation
                      JOINT Bip01_R_Finger12__Mq0
                      {
                        OFFSET 2.35773 0 0
                        CHANNELS 3 Zrotation Xrotation Yrotation
                        JOINT Bip01_R_Finger1Nub__z3U
                        {
                          OFFSET 2.06002 0 0
                          CHANNELS 3 Zrotation Xrotation Yrotation
                          End Site
                          {
                            OFFSET 0 0 0
                          }
                        }
                      }
                    }
                  }
                  JOINT Bip01_R_Finger0__k1M
                  {
                    OFFSET 5.34552 1.55491 1.82842
                    CHANNELS 3 Zrotation Xrotation Yrotation
                    JOINT Bip01_R_Finger01__OSt
                    {
                      OFFSET 2.06312 0 0
                      CHANNELS 3 Zrotation Xrotation Yrotation
                      JOINT Bip01_R_Finger02__lh5
                      {
                        OFFSET 1.30829 0 0
                        CHANNELS 3 Zrotation Xrotation Yrotation
                        JOINT Bip01_R_Finger0Nub__D3T
                        {
                          OFFSET 1.39008 0 0
                          CHANNELS 3 Zrotation Xrotation Yrotation
                          End Site
                          {
                            OFFSET 0 0 0
                          }
                        }
                      }
                    }
                  }
                }
              }
            }
          }
          JOINT Bip01_Neck__7Y5
          {
            OFFSET 7.32043 -0.72364 0
            CHANNELS 3 Zrotation Xrotation Yrotation
            JOINT Bip01_Head__QK5
            {
              OFFSET 6.63477 1.80776 0
              CHANNELS 3 Zrotation Xrotation Yrotation
              JOINT BN_Lip_01__m8A
              {
                OFFSET 6.91827 0.516392 0
                CHANNELS 3 Zrotation Xrotation Yrotation
                End Site
                {
                  OFFSET 0 0 0
                }
              }
              JOINT BN_eyelid_R__orJ
              {
                OFFSET 4.9883 -1.379 -1.4384
                CHANNELS 3 Zrotation Xrotation Yrotation
                End Site
                {
                  OFFSET 0 0 0
                }
              }
              JOINT BN_eyelid_L__U2g
              {
                OFFSET 4.98829 -1.37898 1.43689
                CHANNELS 3 Zrotation Xrotation Yrotation
                End Site
                {
                  OFFSET 0 0 0
                }
              }
              JOINT BN_Beard_R__fvu
              {
                OFFSET 4.30219 -0.500206 -3.06098
                CHANNELS 3 Zrotation Xrotation Yrotation
                End Site
                {
                  OFFSET 0 0 0
                }
              }
              JOINT BN_Mouth__50j
              {
                OFFSET 0.467909 -0.500935 1.016e-005
                CHANNELS 3 Zrotation Xrotation Yrotation
                JOINT BN_Lip_02__pae
                {
                  OFFSET 6.82851 -0.388573 1.016e-005
                  CHANNELS 3 Zrotation Xrotation Yrotation
                  End Site
                  {
                    OFFSET 0 0 0
                  }
                }
              }
              JOINT BN_Beard_L__44F
              {
                OFFSET 4.30218 -0.500237 3.06042
                CHANNELS 3 Zrotation Xrotation Yrotation
                End Site
                {
                  OFFSET 0 0 0
                }
              }
              JOINT Bip01_HeadNub__iaN
              {
                OFFSET 9.79679 0 0
                CHANNELS 3 Zrotation Xrotation Yrotation
                End Site
                {
                  OFFSET 0 0 0
                }
              }
            }
          }
        }
      }
    }
  }
}
MOTION
Frames:	3
Frame Time:	0.0333333
-9.80635 33.1878 -0.00013208 -103.256 -90 -10.6684 -89.8698 0.512578 -104.07 43.623 -3.39787 177.526 -29.1871 -3.44389e-006 9.80945e-006 -16.1099 -0.000470536 1.52581 -10.6108 -0.00326416 4.95346 41.4793 -0.000424385 15.2423 56.5166 0.0013054 27.6217 55.5859 0.00099569 24.3119 -8.62714 -0.214742 4.7057 -122.181 -42.2899 153.424 -47.1419 -1.21983e-007 1.43663e-005 19.4971 -22.6685 -2.53296 173.665 -66.2616 93.3101 -2.88398e-007 9.87206e-006 -3.06193e-007 1.38488e-007 -1.13396e-008 -9.8933e-008 84.5455 -2.61374 8.16846 1.15754e-007 1.00197e-005 -1.57391e-008 -1.95483e-008 -6.55828e-008 -1.57391e-008 85.8618 -1.98605 -6.56182 1.09526e-007 1.00215e-005 5.27624e-007 1.86925e-007 9.08456e-008 -2.5769e-007 -71.4297 18.9184 -167.871 -36.1083 -1.94682e-005 -3.15342e-006 -6.53514 2.04066 -5.45609 -151.124 48.8403 -102.725 -3.9354e-008 9.7169e-006 -1.70766e-006 -179.96 -0.00147179 0.000755207 140.861 -11.271 -0.957469 1.99019e-008 9.99581e-006 3.80374e-007 -179.96 -0.00116995 0.00116455 138.266 -7.49953 13.6513 -0.0174859 8.80752e-006 0.00349756 -179.961 -0.00115285 0.00280542 9.86357 1.85544 7.79079 11.22 -4.17535 6.04218 179.97 -27.4872 -102.181 -16.2288 -33.5072 91.7986 -113.541 7.87261e-006 -1.77925e-005 23.9678 3.43419 16.5614 7.42808 -1.67747 -10.4171 36.5389 1.28806e-007 1.06618e-006 16.0661 1.33084e-005 7.4302e-006 -1.65785e-007 2.75574e-006 -5.48566e-007 30.0486 -5.62952 -8.28733 22.0419 0.0549259 -0.0106971 22.288 -0.0377742 0.260509 -5.59068e-007 2.78822e-007 2.2004e-006 34.5648 -2.40144 -2.17266 27.7294 -0.138735 -0.12426 29.594 1.06288 -0.769108 -4.46314e-007 7.2195e-007 1.81671e-006 24.2347 -0.941113 7.19222 -21.7975 0.886636 -2.34745 -2.27088 0.460047 0.260964 -2.59162e-007 9.08574e-006 7.75829e-007 179.981 12.3289 115.123 -14.8194 69.2609 -77.6723 -52.9587 6.50385e-006 9.89687e-006 -76.4464 3.1778 32.3853 -8.5937 -4.6753 15.9296 26.6466 -1.26839e-005 4.91217e-006 -16.2392 -0.00148502 0.0103869 179.961 0.00208905 0.0067662 -8.11921 -1.19206 6.98827 28.3607 -0.120723 0.221675 -22.6401 0.555085 -1.1693 -179.938 -0.00281803 -0.0294271 -8.72229 0.803803 0.313835 31.6411 0.788193 0.0492742 -30.1474 -5.89755 0.9235 -179.962 -0.00576655 -0.00759276 -2.6629 5.675 -8.60794 11.2348 -2.38157 -0.560075 2.14122 -2.31237 0.365079 179.961 -0.000863979 0.00556312 -15.6842 -1.56644 -0.109847 3.5698 4.16254 -2.57028 -89.5058 -0.0366516 -179.975 146.794 0.0361786 -179.997 -33.2031 -0.00335062 -0.000998672 3.65494 12.4642 142.164 -149.137 0.0607826 178.402 102.996 0.0139431 0.10046 -176.343 12.4719 -40.8896 4.22333e-008 -1.12884e-008 9.49802e-009
-9.80635 33.1015 0.0191804 -103.256 -90 -10.6684 -90.187 0.551228 -104.264 43.5212 -3.4002 177.526 -29.2253 0.0538887 -0.539666 -16.2106 0.0308794 1.1044 -10.7683 0.0435076 4.85437 41.0067 -0.000793976 15.0949 54.9968 0.000435744 27.4661 53.8002 0.000259509 27.2457 -8.6348 -0.167949 4.81372 -120.947 -42.336 153.59 -48.4985 -4.00367e-007 1.43383e-005 21.3761 -22.1068 -1.76852 174.222 -65.7798 93.3949 -2.88398e-007 9.87206e-006 -3.06193e-007 1.38488e-007 -1.13396e-008 -9.8933e-008 85.1216 -2.57057 8.464 1.1562e-007 1.00197e-005 0.000596778 -1.95483e-008 -6.55828e-008 -1.57391e-008 86.4094 -1.96021 -6.27142 1.09526e-007 1.00215e-005 5.27624e-007 1.86925e-007 9.08456e-008 -2.5769e-007 -71.9033 18.6269 -166.954 -38.7661 -1.93015e-005 -4.07638e-006 -5.23745 2.48956 -6.65745 -151.452 49.292 -103.725 -0.419926 9.65198e-006 8.35672e-006 -179.96 -0.00147179 0.000755207 138.325 -11.1216 -1.42739 -0.873538 -0.000662221 0.0440767 -179.96 -0.00116995 0.00116455 135.846 -7.8853 13.2862 -0.944826 0.000268494 -0.0156693 -179.961 -0.00115286 0.00280542 9.20932 1.9051 7.74505 11.6381 -3.89968 6.58393 179.97 -26.599 -103.966 -12.3531 -36.4578 95.8712 -113.109 8.03533e-006 -1.77873e-005 20.1319 3.68629 16.8655 11.5608 -2.75208 -9.97252 39.6075 7.23233e-006 9.36352e-006 19.4053 -0.00313592 -0.0089349 -1.65785e-007 2.75574e-006 -5.48566e-007 31.8719 -5.89069 -8.31088 27.021 0.0537989 -0.0154076 25.9723 -0.0519685 0.198735 -5.59068e-007 2.78822e-007 2.2004e-006 35.4647 -2.39085 -2.32972 31.3868 -0.101204 -0.11033 33.3315 0.771272 -0.592068 -4.46313e-007 7.2195e-007 1.81671e-006 27.2814 -0.452472 7.05452 -16.5266 0.622324 -2.71332 3.67479 0.353249 0.207289 -2.59162e-007 9.08574e-006 7.75829e-007 179.979 12.3259 114.492 -17.6424 67.6346 -75.397 -52.346 -7.14243e-007 1.54463e-005 -77.207 3.02437 32.1031 -9.93213 -5.05031 15.778 26.8595 -0.00244043 -0.00478846 -16.1303 0.00821899 -0.0230953 179.961 0.00208905 0.0067662 -9.48391 -1.36054 6.9664 28.5655 -0.135762 0.193024 -22.4953 0.548174 -1.16116 -179.938 -0.00281803 -0.0294271 -10.1245 0.793794 0.338659 31.8373 0.777517 0.00653641 -30.0033 -5.88908 0.952062 -179.962 -0.00576655 -0.00759276 -4.07158 5.88441 -8.46257 12.0235 -2.38114 -0.539381 2.40398 -2.31302 0.373524 179.961 -0.000863979 0.00556312 -15.7817 -1.55297 -0.258777 3.99381 4.30163 -2.87457 -89.5058 -0.0366516 -179.975 147.037 0.0172272 -179.999 -32.9578 -0.00323112 -0.00117522 3.81565 12.3586 141.97 -149.169 0.0585405 178.403 102.996 0.0139431 0.10046 -176.193 12.3507 -40.9717 4.22333e-008 -1.12884e-008 9.49802e-009
-9.80635 33.0211 0.0385039 -103.256 -90 -10.6684 -90.5635 0.598564 -104.057 43.2354 -3.39047 177.512 -29.331 0.101129 -1.03479 -16.4859 0.0627805 0.71042 -11.1888 0.0820427 4.58149 40.7917 0.000197593 14.6864 53.8614 -0.000750696 27.0276 51.8831 -0.0186295 29.7525 -8.68952 -0.0563325 4.7057 -119.033 -42.4173 154.363 -48.9837 -4.82807e-007 1.4322e-005 23.2881 -21.4471 -0.89118 174.439 -65.1208 93.6648 -2.88398e-007 9.87206e-006 -3.06193e-007 1.38488e-007 -1.13396e-008 -9.8933e-008 85.325 -2.47395 8.60419 1.15489e-007 1.00196e-005 0.00118198 -1.95483e-008 -6.55828e-008 -1.57391e-008 86.5544 -1.92888 -6.15702 1.09526e-007 1.00215e-005 5.27624e-007 1.86925e-007 9.08456e-008 -2.5769e-007 -73.0377 18.4879 -165.864 -42.9544 -1.21308e-005 -1.28476e-005 -1.9197 3.20849 -8.4823 -152.309 50.5471 -106.478 -1.54474 9.75214e-006 -1.53032e-006 -179.96 -0.00147179 0.000755207 131.431 -10.616 -2.673 -3.30044 -0.00153663 0.0268062 -179.96 -0.00116996 0.00116455 129.227 -8.84984 12.1881 -3.46894 0.00155855 -0.0255419 -179.961 -0.00115286 0.00280542 8.5893 1.88013 7.56177 12.0886 -3.53822 7.02355 179.965 -24.8506 -106.495 -5.99019 -39.2378 102.081 -111.68 8.21188e-006 -1.76581e-005 13.349 3.14256 17.1885 17.0218 -4.12695 -9.29392 40.7007 0.000708463 0.000824448 23.3259 -0.0193605 -0.0449262 -1.65785e-007 2.75574e-006 -5.48566e-007 32.7671 -6.01665 -8.48303 31.3288 0.0534278 -0.0178636 30.818 -0.0803358 0.126409 -5.59068e-007 2.78822e-007 2.2004e-006 35.1987 -2.31487 -2.59232 33.5443 -0.0526217 -0.086779 37.7457 0.410805 -0.369728 -4.46314e-007 7.21949e-007 1.81671e-006 31.2887 0.173848 6.83573 -10.1927 0.257627 -3.144 10.9875 0.20505 0.159674 -2.59162e-007 9.08574e-006 7.75829e-007 179.968 12.3014 113.791 -20.4211 66.1932 -73.1034 -51.4324 6.7251e-006 9.67391e-006 -77.9984 2.8455 31.8871 -11.555 -5.51515 15.6228 27.4006 -0.00293832 -0.00563844 -16.1156 0.012096 -0.0365359 179.961 0.00208905 0.0067662 -11.0914 -1.55346 6.91708 29.1352 -0.132672 0.196454 -22.6033 0.544018 -1.14489 -179.938 -0.00281803 -0.0294271 -11.8028 0.786106 0.35516 32.4196 0.779159 -0.000378793 -30.0943 -5.90234 0.938693 -179.962 -0.00576655 -0.00759276 -5.82798 6.14384 -8.28579 13.1804 -2.38904 -0.542076 2.6509 -2.3131 0.381611 179.961 -0.000863979 0.00556312 -15.8145 -1.51745 -0.41789 4.45702 4.41843 -3.15468 -89.5058 -0.0366516 -179.975 147.274 -0.00132751 179.999 -32.7179 -0.00311747 -0.00134624 3.97222 12.2545 141.78 -149.234 0.0576406 178.403 102.996 0.0139431 0.10046 -176.046 12.2319 -41.0517 4.22333e-008 -1.12884e-008 9.49802e-009
